<?xml version="1.0" encoding="UTF-8" standalone="no"?>
<!DOCTYPE svg PUBLIC "-//W3C//DTD SVG 1.1//EN"
 "http://www.w3.org/Graphics/SVG/1.1/DTD/svg11.dtd">
<!-- Generated by graphviz version 2.42.4 (0)
 -->
<!-- Title: G Pages: 1 -->
<svg width="827pt" height="115pt"
 viewBox="0.00 0.00 827.00 115.00" xmlns="http://www.w3.org/2000/svg" xmlns:xlink="http://www.w3.org/1999/xlink">
<g id="graph0" class="graph" transform="scale(1 1) rotate(0) translate(18 97)">
<title>G</title>
<!-- host -->
<g id="node1" class="node">
<title>host</title>
<path fill="#f7f7f7" stroke="#444444" d="M142,-41C142,-41 12,-41 12,-41 6,-41 0,-35 0,-29 0,-29 0,-12 0,-12 0,-6 6,0 12,0 12,0 142,0 142,0 148,0 154,-6 154,-12 154,-12 154,-29 154,-29 154,-35 148,-41 142,-41"/>
<text text-anchor="middle" x="77" y="-29" font-family="Helvetica,sans-Serif" font-size="10.00">Host</text>
<text text-anchor="middle" x="77" y="-18" font-family="Helvetica,sans-Serif" font-size="10.00">CLI/YANG • RIB • interfaces</text>
<text text-anchor="middle" x="77" y="-7" font-family="Helvetica,sans-Serif" font-size="10.00">scheduler • sockets • policy</text>
</g>
<!-- nb -->
<g id="node2" class="node">
<title>nb</title>
<path fill="#f7f7f7" stroke="#444444" d="M360,-79C360,-79 303,-79 303,-79 297,-79 291,-73 291,-67 291,-67 291,-50 291,-50 291,-44 297,-38 303,-38 303,-38 360,-38 360,-38 366,-38 372,-44 372,-50 372,-50 372,-67 372,-67 372,-73 366,-79 360,-79"/>
<text text-anchor="middle" x="331.5" y="-67" font-family="Helvetica,sans-Serif" font-size="10.00">Northbound</text>
<text text-anchor="middle" x="331.5" y="-56" font-family="Helvetica,sans-Serif" font-size="10.00">eigrp_cli.h</text>
<text text-anchor="middle" x="331.5" y="-45" font-family="Helvetica,sans-Serif" font-size="10.00">eigrp_mgnt.h</text>
</g>
<!-- host&#45;&gt;nb -->
<g id="edge1" class="edge">
<title>host&#45;&gt;nb</title>
<path fill="none" stroke="#555555" d="M154.1,-31.95C196.3,-38.3 247.43,-46 283.75,-51.46"/>
<polygon fill="#555555" stroke="#555555" points="283.53,-53.91 290.81,-52.53 284.26,-49.06 283.53,-53.91"/>
<text text-anchor="middle" x="222.5" y="-52.3" font-family="Helvetica,sans-Serif" font-size="9.00">normalize config/admin</text>
</g>
<!-- core -->
<g id="node3" class="node">
<title>core</title>
<path fill="#f7f7f7" stroke="#444444" d="M562,-73.5C562,-73.5 486,-73.5 486,-73.5 480,-73.5 474,-67.5 474,-61.5 474,-61.5 474,-49.5 474,-49.5 474,-43.5 480,-37.5 486,-37.5 486,-37.5 562,-37.5 562,-37.5 568,-37.5 574,-43.5 574,-49.5 574,-49.5 574,-61.5 574,-61.5 574,-67.5 568,-73.5 562,-73.5"/>
<text text-anchor="middle" x="524" y="-58.5" font-family="Helvetica,sans-Serif" font-size="10.00">Portable core</text>
<text text-anchor="middle" x="524" y="-47.5" font-family="Helvetica,sans-Serif" font-size="10.00">semantic owners</text>
</g>
<!-- nb&#45;&gt;core -->
<g id="edge2" class="edge">
<title>nb&#45;&gt;core</title>
<path fill="none" stroke="#555555" d="M372.09,-59.31C377.11,-59.39 382.17,-59.46 387,-59.5 419,-59.79 427.02,-60.5 459,-59.5 461.39,-59.43 463.83,-59.33 466.3,-59.23"/>
<polygon fill="#555555" stroke="#555555" points="466.87,-61.66 473.75,-58.89 466.64,-56.76 466.87,-61.66"/>
</g>
<!-- core&#45;&gt;nb -->
<g id="edge5" class="edge">
<title>core&#45;&gt;nb</title>
<path fill="none" stroke="#555555" d="M466.71,-49.02C442.2,-47.12 413.14,-46.12 387,-48.5 382.21,-48.94 377.21,-49.58 372.27,-50.34"/>
<polygon fill="#555555" stroke="#555555" points="466.66,-51.47 473.83,-49.61 467.06,-46.59 466.66,-51.47"/>
<text text-anchor="middle" x="423" y="-51.3" font-family="Helvetica,sans-Serif" font-size="9.00">state snapshots</text>
</g>
<!-- sb -->
<g id="node4" class="node">
<title>sb</title>
<path fill="#f7f7f7" stroke="#444444" d="M779,-41C779,-41 729,-41 729,-41 723,-41 717,-35 717,-29 717,-29 717,-12 717,-12 717,-6 723,0 729,0 729,0 779,0 779,0 785,0 791,-6 791,-12 791,-12 791,-29 791,-29 791,-35 785,-41 779,-41"/>
<text text-anchor="middle" x="754" y="-29" font-family="Helvetica,sans-Serif" font-size="10.00">Southbound</text>
<text text-anchor="middle" x="754" y="-18" font-family="Helvetica,sans-Serif" font-size="10.00">eigrp_rib.h</text>
<text text-anchor="middle" x="754" y="-7" font-family="Helvetica,sans-Serif" font-size="10.00">eigrp_sys.h</text>
</g>
<!-- core&#45;&gt;sb -->
<g id="edge3" class="edge">
<title>core&#45;&gt;sb</title>
<path fill="none" stroke="#555555" d="M574.19,-47.95C614.61,-41.74 671.32,-33.04 709.96,-27.11"/>
<polygon fill="#555555" stroke="#555555" points="710.41,-29.52 716.96,-26.03 709.66,-24.67 710.41,-29.52"/>
<text text-anchor="middle" x="645.5" y="-47.3" font-family="Helvetica,sans-Serif" font-size="9.00">request host mechanism</text>
</g>
<!-- sb&#45;&gt;host -->
<g id="edge4" class="edge">
<title>sb&#45;&gt;host</title>
<path fill="none" stroke="#555555" d="M716.73,-20.5C612.39,-20.5 309.55,-20.5 161.48,-20.5"/>
<polygon fill="#555555" stroke="#555555" points="161.12,-18.05 154.12,-20.5 161.12,-22.95 161.12,-18.05"/>
</g>
</g>
</svg>
