<?xml version="1.0" encoding="UTF-8" standalone="no"?>
<!DOCTYPE svg PUBLIC "-//W3C//DTD SVG 1.1//EN"
 "http://www.w3.org/Graphics/SVG/1.1/DTD/svg11.dtd">
<!-- Generated by graphviz version 2.42.4 (0)
 -->
<!-- Title: G Pages: 1 -->
<svg width="380pt" height="374pt"
 viewBox="0.00 0.00 380.00 374.00" xmlns="http://www.w3.org/2000/svg" xmlns:xlink="http://www.w3.org/1999/xlink">
<g id="graph0" class="graph" transform="scale(1 1) rotate(0) translate(18 356)">
<title>G</title>
<!-- host -->
<g id="node1" class="node">
<title>host</title>
<path fill="#f7f7f7" stroke="#444444" d="M332,-338C332,-338 12,-338 12,-338 6,-338 0,-332 0,-326 0,-326 0,-300 0,-300 0,-294 6,-288 12,-288 12,-288 332,-288 332,-288 338,-288 344,-294 344,-300 344,-300 344,-326 344,-326 344,-332 338,-338 332,-338"/>
<text text-anchor="middle" x="172" y="-322.2" font-family="Helvetica,sans-Serif" font-size="11.00">Host routing environment</text>
<text text-anchor="middle" x="172" y="-310.2" font-family="Helvetica,sans-Serif" font-size="11.00">FRR / Unix / BIRD&#45;BSD / another host</text>
<text text-anchor="middle" x="172" y="-298.2" font-family="Helvetica,sans-Serif" font-size="11.00">CLI • config • RIB • interfaces • sockets • timers • policy</text>
</g>
<!-- shim -->
<g id="node2" class="node">
<title>shim</title>
<path fill="#f7f7f7" stroke="#444444" d="M256,-242C256,-242 88,-242 88,-242 82,-242 76,-236 76,-230 76,-230 76,-204 76,-204 76,-198 82,-192 88,-192 88,-192 256,-192 256,-192 262,-192 268,-198 268,-204 268,-204 268,-230 268,-230 268,-236 262,-242 256,-242"/>
<text text-anchor="middle" x="172" y="-226.2" font-family="Helvetica,sans-Serif" font-size="11.00">Host adapter</text>
<text text-anchor="middle" x="172" y="-214.2" font-family="Helvetica,sans-Serif" font-size="11.00">normalization + host services</text>
<text text-anchor="middle" x="172" y="-202.2" font-family="Helvetica,sans-Serif" font-size="11.00">no EIGRP protocol decisions</text>
</g>
<!-- host&#45;&gt;shim -->
<g id="edge1" class="edge">
<title>host&#45;&gt;shim</title>
<path fill="none" stroke="#555555" d="M172,-287.79C172,-276.17 172,-262.09 172,-249.64"/>
<polygon fill="#555555" stroke="#555555" points="174.63,-249.63 172,-242.13 169.38,-249.63 174.63,-249.63"/>
<text text-anchor="middle" x="226.5" y="-262.8" font-family="Helvetica,sans-Serif" font-size="9.00">host&#45;native state/events</text>
</g>
<!-- api -->
<g id="node3" class="node">
<title>api</title>
<path fill="#f7f7f7" stroke="#444444" d="M270.5,-146C270.5,-146 73.5,-146 73.5,-146 67.5,-146 61.5,-140 61.5,-134 61.5,-134 61.5,-108 61.5,-108 61.5,-102 67.5,-96 73.5,-96 73.5,-96 270.5,-96 270.5,-96 276.5,-96 282.5,-102 282.5,-108 282.5,-108 282.5,-134 282.5,-134 282.5,-140 276.5,-146 270.5,-146"/>
<text text-anchor="middle" x="172" y="-130.2" font-family="Helvetica,sans-Serif" font-size="11.00">Public EIGRP boundary</text>
<text text-anchor="middle" x="172" y="-118.2" font-family="Helvetica,sans-Serif" font-size="11.00">eigrp.h • eigrp_cli.h • eigrp_mgnt.h</text>
<text text-anchor="middle" x="172" y="-106.2" font-family="Helvetica,sans-Serif" font-size="11.00">eigrp_rib.h • eigrp_sys.h</text>
</g>
<!-- shim&#45;&gt;api -->
<g id="edge2" class="edge">
<title>shim&#45;&gt;api</title>
<path fill="none" stroke="#555555" d="M172,-191.79C172,-180.17 172,-166.09 172,-153.64"/>
<polygon fill="#555555" stroke="#555555" points="174.63,-153.63 172,-146.13 169.38,-153.63 174.63,-153.63"/>
<text text-anchor="middle" x="228" y="-166.8" font-family="Helvetica,sans-Serif" font-size="9.00">normalized EIGRP values</text>
</g>
<!-- core -->
<g id="node4" class="node">
<title>core</title>
<path fill="#f7f7f7" stroke="#444444" d="M319,-50C319,-50 25,-50 25,-50 19,-50 13,-44 13,-38 13,-38 13,-12 13,-12 13,-6 19,0 25,0 25,0 319,0 319,0 325,0 331,-6 331,-12 331,-12 331,-38 331,-38 331,-44 325,-50 319,-50"/>
<text text-anchor="middle" x="172" y="-34.2" font-family="Helvetica,sans-Serif" font-size="11.00">Portable EIGRP core</text>
<text text-anchor="middle" x="172" y="-22.2" font-family="Helvetica,sans-Serif" font-size="11.00">instances • neighbors • DUAL • metrics • topology</text>
<text text-anchor="middle" x="172" y="-10.2" font-family="Helvetica,sans-Serif" font-size="11.00">TLVs • packetizer • RTP • authentication • event log</text>
</g>
<!-- api&#45;&gt;core -->
<g id="edge3" class="edge">
<title>api&#45;&gt;core</title>
<path fill="none" stroke="#555555" d="M136.92,-95.93C131.67,-90.67 127.02,-84.66 124,-78 120.42,-70.12 122.45,-62.64 127.27,-55.93"/>
<polygon fill="#555555" stroke="#555555" points="129.47,-57.4 132.39,-50.01 125.5,-53.96 129.47,-57.4"/>
<text text-anchor="middle" x="156" y="-70.8" font-family="Helvetica,sans-Serif" font-size="9.00">semantic calls</text>
</g>
<!-- core&#45;&gt;api -->
<g id="edge4" class="edge">
<title>core&#45;&gt;api</title>
<path fill="none" stroke="#555555" d="M188.62,-57.34C190.55,-64.06 191.4,-71.2 190,-78 188.79,-83.91 186.71,-90.01 184.38,-95.67"/>
<polygon fill="#555555" stroke="#555555" points="191.09,-56.46 186.15,-50.23 186.13,-58.18 191.09,-56.46"/>
<text text-anchor="middle" x="238.5" y="-70.8" font-family="Helvetica,sans-Serif" font-size="9.00">host service requests</text>
</g>
</g>
</svg>
