<?xml version="1.0" encoding="UTF-8" standalone="no"?>
<!DOCTYPE svg PUBLIC "-//W3C//DTD SVG 1.1//EN"
 "http://www.w3.org/Graphics/SVG/1.1/DTD/svg11.dtd">
<!-- Generated by graphviz version 2.42.4 (0)
 -->
<!-- Title: G Pages: 1 -->
<svg width="657pt" height="131pt"
 viewBox="0.00 0.00 657.00 130.50" xmlns="http://www.w3.org/2000/svg" xmlns:xlink="http://www.w3.org/1999/xlink">
<g id="graph0" class="graph" transform="scale(1 1) rotate(0) translate(18 112.5)">
<title>G</title>
<!-- host -->
<g id="node1" class="node">
<title>host</title>
<path fill="#f7f7f7" stroke="#444444" d="M54,-51C54,-51 12,-51 12,-51 6,-51 0,-45 0,-39 0,-39 0,-27 0,-27 0,-21 6,-15 12,-15 12,-15 54,-15 54,-15 60,-15 66,-21 66,-27 66,-27 66,-39 66,-39 66,-45 60,-51 54,-51"/>
<text text-anchor="middle" x="33" y="-30.5" font-family="Helvetica,sans-Serif" font-size="10.00">Host shim</text>
</g>
<!-- h2c -->
<g id="node3" class="node">
<title>h2c</title>
<path fill="#f7f7f7" stroke="#444444" d="M260,-94.5C260,-94.5 114,-94.5 114,-94.5 108,-94.5 102,-88.5 102,-82.5 102,-82.5 102,-43.5 102,-43.5 102,-37.5 108,-31.5 114,-31.5 114,-31.5 260,-31.5 260,-31.5 266,-31.5 272,-37.5 272,-43.5 272,-43.5 272,-82.5 272,-82.5 272,-88.5 266,-94.5 260,-94.5"/>
<text text-anchor="middle" x="187" y="-82.5" font-family="Helvetica,sans-Serif" font-size="10.00">H → C</text>
<text text-anchor="middle" x="187" y="-71.5" font-family="Helvetica,sans-Serif" font-size="10.00">eigrp.h</text>
<text text-anchor="middle" x="187" y="-60.5" font-family="Helvetica,sans-Serif" font-size="10.00">eigrp_cli.h</text>
<text text-anchor="middle" x="187" y="-49.5" font-family="Helvetica,sans-Serif" font-size="10.00">eigrp_mgnt.h</text>
<text text-anchor="middle" x="187" y="-38.5" font-family="Helvetica,sans-Serif" font-size="10.00">RIB ingress + host notifications</text>
</g>
<!-- host&#45;&gt;h2c -->
<g id="edge1" class="edge">
<title>host&#45;&gt;h2c</title>
<path fill="none" stroke="#555555" d="M66.24,-39.36C74.87,-41.07 84.66,-43 94.82,-45"/>
<polygon fill="#555555" stroke="#555555" points="94.56,-47.45 101.9,-46.4 95.51,-42.64 94.56,-47.45"/>
</g>
<!-- core -->
<g id="node2" class="node">
<title>core</title>
<path fill="#f7f7f7" stroke="#444444" d="M377,-74C377,-74 320,-74 320,-74 314,-74 308,-68 308,-62 308,-62 308,-50 308,-50 308,-44 314,-38 320,-38 320,-38 377,-38 377,-38 383,-38 389,-44 389,-50 389,-50 389,-62 389,-62 389,-68 383,-74 377,-74"/>
<text text-anchor="middle" x="348.5" y="-53.5" font-family="Helvetica,sans-Serif" font-size="10.00">Portable core</text>
</g>
<!-- c2h -->
<g id="node4" class="node">
<title>c2h</title>
<path fill="#f7f7f7" stroke="#444444" d="M609,-52C609,-52 437,-52 437,-52 431,-52 425,-46 425,-40 425,-40 425,-12 425,-12 425,-6 431,0 437,0 437,0 609,0 609,0 615,0 621,-6 621,-12 621,-12 621,-40 621,-40 621,-46 615,-52 609,-52"/>
<text text-anchor="middle" x="523" y="-40" font-family="Helvetica,sans-Serif" font-size="10.00">C → H</text>
<text text-anchor="middle" x="523" y="-29" font-family="Helvetica,sans-Serif" font-size="10.00">eigrp_rib.h</text>
<text text-anchor="middle" x="523" y="-18" font-family="Helvetica,sans-Serif" font-size="10.00">eigrp_sys.h</text>
<text text-anchor="middle" x="523" y="-7" font-family="Helvetica,sans-Serif" font-size="10.00">RIB install/delete + runtime services</text>
</g>
<!-- core&#45;&gt;c2h -->
<g id="edge3" class="edge">
<title>core&#45;&gt;c2h</title>
<path fill="none" stroke="#555555" d="M389.07,-49.12C397.88,-47.59 407.62,-45.89 417.71,-44.14"/>
<polygon fill="#555555" stroke="#555555" points="418.26,-46.53 424.73,-42.92 417.42,-41.7 418.26,-46.53"/>
</g>
<!-- h2c&#45;&gt;core -->
<g id="edge2" class="edge">
<title>h2c&#45;&gt;core</title>
<path fill="none" stroke="#555555" d="M272.42,-59.3C282.21,-58.87 291.9,-58.44 300.91,-58.04"/>
<polygon fill="#555555" stroke="#555555" points="301.09,-60.49 307.97,-57.73 300.87,-55.59 301.09,-60.49"/>
</g>
<!-- c2h&#45;&gt;host -->
<g id="edge4" class="edge">
<title>c2h&#45;&gt;host</title>
<path fill="none" stroke="#555555" d="M424.65,-20.14C339.41,-16.19 212.3,-13.14 102,-22 92.6,-22.76 82.53,-24.09 73.1,-25.58"/>
<polygon fill="#555555" stroke="#555555" points="72.55,-23.18 66.04,-26.73 73.35,-28.02 72.55,-23.18"/>
</g>
</g>
</svg>
