<?xml version="1.0" encoding="UTF-8" standalone="no"?>
<!DOCTYPE svg PUBLIC "-//W3C//DTD SVG 1.1//EN"
 "http://www.w3.org/Graphics/SVG/1.1/DTD/svg11.dtd">
<!-- Generated by graphviz version 2.42.4 (0)
 -->
<!-- Title: G Pages: 1 -->
<svg width="1059pt" height="191pt"
 viewBox="0.00 0.00 1059.00 191.21" xmlns="http://www.w3.org/2000/svg" xmlns:xlink="http://www.w3.org/1999/xlink">
<g id="graph0" class="graph" transform="scale(1 1) rotate(0) translate(18 173.21)">
<title>G</title>
<!-- in -->
<g id="node1" class="node">
<title>in</title>
<path fill="#f7f7f7" stroke="#444444" d="M170,-54.21C170,-54.21 12,-54.21 12,-54.21 6,-54.21 0,-48.21 0,-42.21 0,-42.21 0,-30.21 0,-30.21 0,-24.21 6,-18.21 12,-18.21 12,-18.21 170,-18.21 170,-18.21 176,-18.21 182,-24.21 182,-30.21 182,-30.21 182,-42.21 182,-42.21 182,-48.21 176,-54.21 170,-54.21"/>
<text text-anchor="middle" x="91" y="-39.21" font-family="Helvetica,sans-Serif" font-size="10.00">UPDATE / QUERY / REPLY</text>
<text text-anchor="middle" x="91" y="-28.21" font-family="Helvetica,sans-Serif" font-size="10.00">neighbor or local topology change</text>
</g>
<!-- fsm -->
<g id="node2" class="node">
<title>fsm</title>
<path fill="#f7f7f7" stroke="#444444" d="M350,-54.21C350,-54.21 231,-54.21 231,-54.21 225,-54.21 219,-48.21 219,-42.21 219,-42.21 219,-30.21 219,-30.21 219,-24.21 225,-18.21 231,-18.21 231,-18.21 350,-18.21 350,-18.21 356,-18.21 362,-24.21 362,-30.21 362,-30.21 362,-42.21 362,-42.21 362,-48.21 356,-54.21 350,-54.21"/>
<text text-anchor="middle" x="290.5" y="-39.21" font-family="Helvetica,sans-Serif" font-size="10.00">DUAL FSM</text>
<text text-anchor="middle" x="290.5" y="-28.21" font-family="Helvetica,sans-Serif" font-size="10.00">Passive / Active substates</text>
</g>
<!-- in&#45;&gt;fsm -->
<g id="edge1" class="edge">
<title>in&#45;&gt;fsm</title>
<path fill="none" stroke="#555555" d="M182.08,-36.21C191.99,-36.21 202.01,-36.21 211.75,-36.21"/>
<polygon fill="#555555" stroke="#555555" points="211.78,-38.66 218.78,-36.21 211.78,-33.76 211.78,-38.66"/>
</g>
<!-- metric -->
<g id="node3" class="node">
<title>metric</title>
<path fill="#f7f7f7" stroke="#444444" d="M617,-101.21C617,-101.21 512,-101.21 512,-101.21 506,-101.21 500,-95.21 500,-89.21 500,-89.21 500,-77.21 500,-77.21 500,-71.21 506,-65.21 512,-65.21 512,-65.21 617,-65.21 617,-65.21 623,-65.21 629,-71.21 629,-77.21 629,-77.21 629,-89.21 629,-89.21 629,-95.21 623,-101.21 617,-101.21"/>
<text text-anchor="middle" x="564.5" y="-86.21" font-family="Helvetica,sans-Serif" font-size="10.00">Metric + FC evaluation</text>
<text text-anchor="middle" x="564.5" y="-75.21" font-family="Helvetica,sans-Serif" font-size="10.00">RD • CD • FD</text>
</g>
<!-- fsm&#45;&gt;metric -->
<g id="edge2" class="edge">
<title>fsm&#45;&gt;metric</title>
<path fill="none" stroke="#555555" d="M362.25,-48.44C402.26,-55.35 452.15,-63.97 492.24,-70.9"/>
<polygon fill="#555555" stroke="#555555" points="492.29,-73.4 499.61,-72.17 493.13,-68.57 492.29,-73.4"/>
</g>
<!-- replies -->
<g id="node4" class="node">
<title>replies</title>
<path fill="#f7f7f7" stroke="#444444" d="M630,-47.21C630,-47.21 499,-47.21 499,-47.21 493,-47.21 487,-41.21 487,-35.21 487,-35.21 487,-23.21 487,-23.21 487,-17.21 493,-11.21 499,-11.21 499,-11.21 630,-11.21 630,-11.21 636,-11.21 642,-17.21 642,-23.21 642,-23.21 642,-35.21 642,-35.21 642,-41.21 636,-47.21 630,-47.21"/>
<text text-anchor="middle" x="564.5" y="-32.21" font-family="Helvetica,sans-Serif" font-size="10.00">Reply&#45;status set</text>
<text text-anchor="middle" x="564.5" y="-21.21" font-family="Helvetica,sans-Serif" font-size="10.00">expected peers / completion</text>
</g>
<!-- fsm&#45;&gt;replies -->
<g id="edge4" class="edge">
<title>fsm&#45;&gt;replies</title>
<path fill="none" stroke="#555555" d="M362.25,-34.39C398.11,-33.47 441.9,-32.34 479.47,-31.38"/>
<polygon fill="#555555" stroke="#555555" points="479.96,-33.82 486.89,-31.19 479.83,-28.92 479.96,-33.82"/>
<text text-anchor="middle" x="424.5" y="-36.01" font-family="Helvetica,sans-Serif" font-size="9.00">Active computation</text>
</g>
<!-- ev -->
<g id="node8" class="node">
<title>ev</title>
<polygon fill="#ffffff" stroke="#444444" points="1017,-47.21 841,-47.21 841,-11.21 1023,-11.21 1023,-41.21 1017,-47.21"/>
<polyline fill="none" stroke="#444444" points="1017,-47.21 1017,-41.21 "/>
<polyline fill="none" stroke="#444444" points="1023,-41.21 1017,-41.21 "/>
<text text-anchor="middle" x="932" y="-32.21" font-family="Helvetica,sans-Serif" font-size="10.00">Event log</text>
<text text-anchor="middle" x="932" y="-21.21" font-family="Helvetica,sans-Serif" font-size="10.00">records decisions at mutation site</text>
</g>
<!-- fsm&#45;&gt;ev -->
<g id="edge8" class="edge">
<title>fsm&#45;&gt;ev</title>
<path fill="none" stroke="#555555" stroke-dasharray="5,2" d="M360.4,-18.15C367,-16.71 373.61,-15.36 380,-14.21 427.1,-5.76 439.22,-4.89 487,-2.21 606.36,4.46 743.73,-6.81 833.67,-16.77"/>
<polygon fill="#555555" stroke="#555555" points="833.65,-19.23 840.88,-17.57 834.19,-14.36 833.65,-19.23"/>
</g>
<!-- select -->
<g id="node5" class="node">
<title>select</title>
<path fill="#f7f7f7" stroke="#444444" d="M792,-101.21C792,-101.21 691,-101.21 691,-101.21 685,-101.21 679,-95.21 679,-89.21 679,-89.21 679,-77.21 679,-77.21 679,-71.21 685,-65.21 691,-65.21 691,-65.21 792,-65.21 792,-65.21 798,-65.21 804,-71.21 804,-77.21 804,-77.21 804,-89.21 804,-89.21 804,-95.21 798,-101.21 792,-101.21"/>
<text text-anchor="middle" x="741.5" y="-86.21" font-family="Helvetica,sans-Serif" font-size="10.00">Commit successor set</text>
<text text-anchor="middle" x="741.5" y="-75.21" font-family="Helvetica,sans-Serif" font-size="10.00">feasible successors</text>
</g>
<!-- metric&#45;&gt;select -->
<g id="edge3" class="edge">
<title>metric&#45;&gt;select</title>
<path fill="none" stroke="#555555" d="M629.17,-83.21C642.99,-83.21 657.66,-83.21 671.66,-83.21"/>
<polygon fill="#555555" stroke="#555555" points="671.92,-85.66 678.92,-83.21 671.92,-80.76 671.92,-85.66"/>
</g>
<!-- metric&#45;&gt;ev -->
<g id="edge9" class="edge">
<title>metric&#45;&gt;ev</title>
<path fill="none" stroke="#555555" stroke-dasharray="5,2" d="M629.14,-66.58C645.32,-62.76 662.73,-59.01 679,-56.21 729.73,-47.5 786.73,-41.11 833.66,-36.74"/>
<polygon fill="#555555" stroke="#555555" points="834.07,-39.17 840.81,-36.09 833.62,-34.29 834.07,-39.17"/>
</g>
<!-- replies&#45;&gt;fsm -->
<g id="edge5" class="edge">
<title>replies&#45;&gt;fsm</title>
<path fill="none" stroke="#555555" d="M486.62,-20.71C453.74,-18.3 414.95,-17.08 380,-20.21 376.49,-20.53 372.92,-20.91 369.31,-21.35"/>
<polygon fill="#555555" stroke="#555555" points="368.98,-18.92 362.36,-22.25 369.61,-23.78 368.98,-18.92"/>
<text text-anchor="middle" x="424.5" y="-23.01" font-family="Helvetica,sans-Serif" font-size="9.00">Active computation</text>
</g>
<!-- out -->
<g id="node6" class="node">
<title>out</title>
<path fill="#f7f7f7" stroke="#444444" d="M1000.5,-155.21C1000.5,-155.21 863.5,-155.21 863.5,-155.21 857.5,-155.21 851.5,-149.21 851.5,-143.21 851.5,-143.21 851.5,-131.21 851.5,-131.21 851.5,-125.21 857.5,-119.21 863.5,-119.21 863.5,-119.21 1000.5,-119.21 1000.5,-119.21 1006.5,-119.21 1012.5,-125.21 1012.5,-131.21 1012.5,-131.21 1012.5,-143.21 1012.5,-143.21 1012.5,-149.21 1006.5,-155.21 1000.5,-155.21"/>
<text text-anchor="middle" x="932" y="-140.21" font-family="Helvetica,sans-Serif" font-size="10.00">Packet work</text>
<text text-anchor="middle" x="932" y="-129.21" font-family="Helvetica,sans-Serif" font-size="10.00">UPDATE / QUERY / REPLY / SIA</text>
</g>
<!-- select&#45;&gt;out -->
<g id="edge6" class="edge">
<title>select&#45;&gt;out</title>
<path fill="none" stroke="#555555" d="M804.22,-100.9C822.39,-106.1 842.4,-111.83 861.05,-117.17"/>
<polygon fill="#555555" stroke="#555555" points="860.44,-119.55 867.85,-119.12 861.79,-114.84 860.44,-119.55"/>
</g>
<!-- rib -->
<g id="node7" class="node">
<title>rib</title>
<path fill="#f7f7f7" stroke="#444444" d="M970.5,-101.21C970.5,-101.21 893.5,-101.21 893.5,-101.21 887.5,-101.21 881.5,-95.21 881.5,-89.21 881.5,-89.21 881.5,-77.21 881.5,-77.21 881.5,-71.21 887.5,-65.21 893.5,-65.21 893.5,-65.21 970.5,-65.21 970.5,-65.21 976.5,-65.21 982.5,-71.21 982.5,-77.21 982.5,-77.21 982.5,-89.21 982.5,-89.21 982.5,-95.21 976.5,-101.21 970.5,-101.21"/>
<text text-anchor="middle" x="932" y="-86.21" font-family="Helvetica,sans-Serif" font-size="10.00">Host RIB request</text>
<text text-anchor="middle" x="932" y="-75.21" font-family="Helvetica,sans-Serif" font-size="10.00">install / withdraw</text>
</g>
<!-- select&#45;&gt;rib -->
<g id="edge7" class="edge">
<title>select&#45;&gt;rib</title>
<path fill="none" stroke="#555555" d="M804.22,-83.21C826.8,-83.21 852.21,-83.21 874.32,-83.21"/>
<polygon fill="#555555" stroke="#555555" points="874.38,-85.66 881.38,-83.21 874.38,-80.76 874.38,-85.66"/>
</g>
<!-- select&#45;&gt;ev -->
<g id="edge10" class="edge">
<title>select&#45;&gt;ev</title>
<path fill="none" stroke="#555555" stroke-dasharray="5,2" d="M804.22,-65.53C822.39,-60.33 842.4,-54.6 861.05,-49.25"/>
<polygon fill="#555555" stroke="#555555" points="861.79,-51.59 867.85,-47.31 860.44,-46.88 861.79,-51.59"/>
</g>
</g>
</svg>
