<?xml version="1.0" encoding="UTF-8" standalone="no"?>
<!DOCTYPE svg PUBLIC "-//W3C//DTD SVG 1.1//EN"
 "http://www.w3.org/Graphics/SVG/1.1/DTD/svg11.dtd">
<!-- Generated by graphviz version 2.42.4 (0)
 -->
<!-- Title: G Pages: 1 -->
<svg width="1377pt" height="116pt"
 viewBox="0.00 0.00 1377.00 115.52" xmlns="http://www.w3.org/2000/svg" xmlns:xlink="http://www.w3.org/1999/xlink">
<g id="graph0" class="graph" transform="scale(1 1) rotate(0) translate(18 97.52)">
<title>G</title>
<!-- work -->
<g id="node1" class="node">
<title>work</title>
<path fill="#f7f7f7" stroke="#444444" d="M149,-66C149,-66 12,-66 12,-66 6,-66 0,-60 0,-54 0,-54 0,-42 0,-42 0,-36 6,-30 12,-30 12,-30 149,-30 149,-30 155,-30 161,-36 161,-42 161,-42 161,-54 161,-54 161,-60 155,-66 149,-66"/>
<text text-anchor="middle" x="80.5" y="-51" font-family="Helvetica,sans-Serif" font-size="10.00">Semantic packet work</text>
<text text-anchor="middle" x="80.5" y="-40" font-family="Helvetica,sans-Serif" font-size="10.00">UPDATE / QUERY / REPLY / SIA</text>
</g>
<!-- validate -->
<g id="node2" class="node">
<title>validate</title>
<path fill="#f7f7f7" stroke="#444444" d="M378,-68.5C378,-68.5 210,-68.5 210,-68.5 204,-68.5 198,-62.5 198,-56.5 198,-56.5 198,-39.5 198,-39.5 198,-33.5 204,-27.5 210,-27.5 210,-27.5 378,-27.5 378,-27.5 384,-27.5 390,-33.5 390,-39.5 390,-39.5 390,-56.5 390,-56.5 390,-62.5 384,-68.5 378,-68.5"/>
<text text-anchor="middle" x="294" y="-56.5" font-family="Helvetica,sans-Serif" font-size="10.00">Consume&#45;time validation</text>
<text text-anchor="middle" x="294" y="-45.5" font-family="Helvetica,sans-Serif" font-size="10.00">neighbor • interface • split horizon</text>
<text text-anchor="middle" x="294" y="-34.5" font-family="Helvetica,sans-Serif" font-size="10.00">poison • codec • current route state</text>
</g>
<!-- work&#45;&gt;validate -->
<g id="edge1" class="edge">
<title>work&#45;&gt;validate</title>
<path fill="none" stroke="#555555" d="M161.16,-48C170.77,-48 180.69,-48 190.57,-48"/>
<polygon fill="#555555" stroke="#555555" points="190.75,-50.45 197.75,-48 190.75,-45.55 190.75,-50.45"/>
</g>
<!-- build -->
<g id="node3" class="node">
<title>build</title>
<path fill="#f7f7f7" stroke="#444444" d="M557,-66C557,-66 439,-66 439,-66 433,-66 427,-60 427,-54 427,-54 427,-42 427,-42 427,-36 433,-30 439,-30 439,-30 557,-30 557,-30 563,-30 569,-36 569,-42 569,-42 569,-54 569,-54 569,-60 563,-66 557,-66"/>
<text text-anchor="middle" x="498" y="-51" font-family="Helvetica,sans-Serif" font-size="10.00">Packetizer / TLV codec</text>
<text text-anchor="middle" x="498" y="-40" font-family="Helvetica,sans-Serif" font-size="10.00">MTU&#45;aware packet image</text>
</g>
<!-- validate&#45;&gt;build -->
<g id="edge2" class="edge">
<title>validate&#45;&gt;build</title>
<path fill="none" stroke="#555555" d="M390.09,-48C400.05,-48 410.09,-48 419.82,-48"/>
<polygon fill="#555555" stroke="#555555" points="419.84,-50.45 426.84,-48 419.84,-45.55 419.84,-50.45"/>
</g>
<!-- txq -->
<g id="node4" class="node">
<title>txq</title>
<path fill="#f7f7f7" stroke="#444444" d="M750,-66C750,-66 618,-66 618,-66 612,-66 606,-60 606,-54 606,-54 606,-42 606,-42 606,-36 612,-30 618,-30 618,-30 750,-30 750,-30 756,-30 762,-36 762,-42 762,-42 762,-54 762,-54 762,-60 756,-66 750,-66"/>
<text text-anchor="middle" x="684" y="-51" font-family="Helvetica,sans-Serif" font-size="10.00">RTP transmit queue</text>
<text text-anchor="middle" x="684" y="-40" font-family="Helvetica,sans-Serif" font-size="10.00">sequence + peer obligations</text>
</g>
<!-- build&#45;&gt;txq -->
<g id="edge3" class="edge">
<title>build&#45;&gt;txq</title>
<path fill="none" stroke="#555555" d="M569.09,-48C578.73,-48 588.72,-48 598.58,-48"/>
<polygon fill="#555555" stroke="#555555" points="598.74,-50.45 605.74,-48 598.74,-45.55 598.74,-50.45"/>
</g>
<!-- send -->
<g id="node5" class="node">
<title>send</title>
<path fill="#f7f7f7" stroke="#444444" d="M1160,-66C1160,-66 1083,-66 1083,-66 1077,-66 1071,-60 1071,-54 1071,-54 1071,-42 1071,-42 1071,-36 1077,-30 1083,-30 1083,-30 1160,-30 1160,-30 1166,-30 1172,-36 1172,-42 1172,-42 1172,-54 1172,-54 1172,-60 1166,-66 1160,-66"/>
<text text-anchor="middle" x="1121.5" y="-45.5" font-family="Helvetica,sans-Serif" font-size="10.00">Host packet send</text>
</g>
<!-- txq&#45;&gt;send -->
<g id="edge4" class="edge">
<title>txq&#45;&gt;send</title>
<path fill="none" stroke="#555555" d="M762.36,-64.73C785.31,-68.96 810.57,-72.89 834,-75 931.11,-83.73 956.95,-78.8 1053,-62 1056.52,-61.38 1060.14,-60.72 1063.78,-60.03"/>
<polygon fill="#555555" stroke="#555555" points="1064.39,-62.41 1070.8,-58.68 1063.47,-57.6 1064.39,-62.41"/>
</g>
<!-- retry -->
<g id="node7" class="node">
<title>retry</title>
<path fill="#f7f7f7" stroke="#444444" d="M950,-66C950,-66 846,-66 846,-66 840,-66 834,-60 834,-54 834,-54 834,-42 834,-42 834,-36 840,-30 846,-30 846,-30 950,-30 950,-30 956,-30 962,-36 962,-42 962,-42 962,-54 962,-54 962,-60 956,-66 950,-66"/>
<text text-anchor="middle" x="898" y="-45.5" font-family="Helvetica,sans-Serif" font-size="10.00">Retransmit / retry limit</text>
</g>
<!-- txq&#45;&gt;retry -->
<g id="edge7" class="edge">
<title>txq&#45;&gt;retry</title>
<path fill="none" stroke="#555555" d="M762.14,-48C783.21,-48 805.93,-48 826.61,-48"/>
<polygon fill="#555555" stroke="#555555" points="826.83,-50.45 833.83,-48 826.83,-45.55 826.83,-50.45"/>
<text text-anchor="middle" x="798" y="-50.8" font-family="Helvetica,sans-Serif" font-size="9.00">timeout</text>
</g>
<!-- ack -->
<g id="node6" class="node">
<title>ack</title>
<path fill="#f7f7f7" stroke="#444444" d="M1329,-36C1329,-36 1253,-36 1253,-36 1247,-36 1241,-30 1241,-24 1241,-24 1241,-12 1241,-12 1241,-6 1247,0 1253,0 1253,0 1329,0 1329,0 1335,0 1341,-6 1341,-12 1341,-12 1341,-24 1341,-24 1341,-30 1335,-36 1329,-36"/>
<text text-anchor="middle" x="1291" y="-21" font-family="Helvetica,sans-Serif" font-size="10.00">ACK receive</text>
<text text-anchor="middle" x="1291" y="-10" font-family="Helvetica,sans-Serif" font-size="10.00">SRTT/RTO update</text>
</g>
<!-- send&#45;&gt;ack -->
<g id="edge5" class="edge">
<title>send&#45;&gt;ack</title>
<path fill="none" stroke="#555555" d="M1172.3,-39.08C1191.71,-35.6 1214.05,-31.6 1234.01,-28.03"/>
<polygon fill="#555555" stroke="#555555" points="1234.51,-30.43 1240.97,-26.78 1233.64,-25.6 1234.51,-30.43"/>
<text text-anchor="middle" x="1206.5" y="-37.8" font-family="Helvetica,sans-Serif" font-size="9.00">reliable</text>
</g>
<!-- ack&#45;&gt;txq -->
<g id="edge6" class="edge">
<title>ack&#45;&gt;txq</title>
<path fill="none" stroke="#555555" d="M1240.94,-15.56C1157.24,-12.01 981.6,-7.24 834,-21 812.95,-22.96 790.43,-26.35 769.43,-30.09"/>
<polygon fill="#555555" stroke="#555555" points="768.82,-27.71 762.37,-31.36 769.69,-32.53 768.82,-27.71"/>
<text text-anchor="middle" x="1016.5" y="-15.8" font-family="Helvetica,sans-Serif" font-size="9.00">release/advance</text>
</g>
<!-- retry&#45;&gt;send -->
<g id="edge8" class="edge">
<title>retry&#45;&gt;send</title>
<path fill="none" stroke="#555555" d="M962.18,-48C994.14,-48 1032.63,-48 1063.65,-48"/>
<polygon fill="#555555" stroke="#555555" points="1063.96,-50.45 1070.96,-48 1063.96,-45.55 1063.96,-50.45"/>
<text text-anchor="middle" x="1016.5" y="-50.8" font-family="Helvetica,sans-Serif" font-size="9.00">retry</text>
</g>
</g>
</svg>
